<?xml version="1.0" encoding="UTF-8" standalone="no"?>
<svg
   xmlns:dc="http://purl.org/dc/elements/1.1/"
   xmlns:cc="http://creativecommons.org/ns#"
   xmlns:rdf="http://www.w3.org/1999/02/22-rdf-syntax-ns#"
   xmlns:svg="http://www.w3.org/2000/svg"
   xmlns="http://www.w3.org/2000/svg"
   xmlns:sodipodi="http://sodipodi.sourceforge.net/DTD/sodipodi-0.dtd"
   xmlns:inkscape="http://www.inkscape.org/namespaces/inkscape"
   width="218.9238mm"
   height="32.53067mm"
   viewBox="0 0 775.71427 115.26615"
   id="svg2"
   version="1.1"
   inkscape:version="1.0.2 (e86c870879, 2021-01-15, custom)"
   sodipodi:docname="simple_phy.svg">
  <defs
     id="defs4" />
  <sodipodi:namedview
     id="base"
     pagecolor="#ffffff"
     bordercolor="#666666"
     borderopacity="1.0"
     inkscape:pageopacity="0.0"
     inkscape:pageshadow="2"
     inkscape:zoom="0.7"
     inkscape:cx="192.79783"
     inkscape:cy="-90.700428"
     inkscape:document-units="px"
     inkscape:current-layer="g4204"
     showgrid="false"
     fit-margin-top="0"
     fit-margin-left="0"
     fit-margin-right="0"
     fit-margin-bottom="0"
     inkscape:window-width="1920"
     inkscape:window-height="1001"
     inkscape:window-x="-9"
     inkscape:window-y="-9"
     inkscape:window-maximized="1"
     inkscape:document-rotation="0" />
  <metadata
     id="metadata7">
    <rdf:RDF>
      <cc:Work
         rdf:about="">
        <dc:format>image/svg+xml</dc:format>
        <dc:type
           rdf:resource="http://purl.org/dc/dcmitype/StillImage" />
        <dc:title />
      </cc:Work>
    </rdf:RDF>
  </metadata>
  <g
     inkscape:label="Layer 1"
     inkscape:groupmode="layer"
     id="layer1"
     transform="translate(68.185514,-146.2503)">
    <g
       id="g4196">
      <g
         id="g4204">
        <g
           aria-label="SIMPLE  PHY"
           id="text4182"
           style="font-style:normal;font-weight:normal;font-size:100px;line-height:125%;font-family:sans-serif;text-align:center;letter-spacing:0px;word-spacing:0px;text-anchor:middle;fill:#ffffff;fill-opacity:1;stroke:none;stroke-width:1px;stroke-linecap:butt;stroke-linejoin:miter;stroke-opacity:1">
          <path
             d="m 103.95687,174.37928 v 14 q -13.500004,-6.6 -21.900004,-6.6 -2.8,0 -4.9,0.6 -2.1,0.5 -3.1,1.2 -1,0.6 -1.6,1.6 -0.5,0.9 -0.6,1.4 -0.1,0.4 -0.1,0.8 0,1.5 1,2.8 1.1,1.2 3.7,2.5 2.7,1.3 4.9,2.2 2.2,0.8 6.9,2.5 3.8,1.4 6.6,2.9 2.9,1.5 5.900004,4 3,2.5 4.6,6.2 1.7,3.7 1.7,8.4 0,5.6 -2.7,9.8 -2.6,4.1 -6.900004,6.3 -4.3,2.1 -8.6,3.1 -4.2,1 -8.5,1 -7.4,0 -14.6,-2.4 -7.1,-2.5 -9.5,-4.2 v -14.7 q 4,2.5 6.7,4 2.7,1.4 7.5,3 4.9,1.5 9.5,1.5 10.2,0 10.2,-6.2 0,-3.1 -2.6,-4.7 -2.6,-1.7 -10.3,-4.3 -3.7,-1.3 -6.2,-2.3 -2.4,-1 -5.8,-2.9 -3.3,-2 -5.3,-4.2 -2,-2.2 -3.5,-5.6 -1.4,-3.5 -1.4,-7.6 0,-8.3 6.7,-13.8 6.8,-5.6 19.1,-5.6 10.8,0 23.100004,5.3 z"
             style="font-style:normal;font-variant:normal;font-weight:bold;font-stretch:normal;font-size:100px;font-family:'Gill Sans MT';-inkscape-font-specification:'Gill Sans MT Bold';fill:#ffffff;fill-opacity:1"
             id="path16" />
          <path
             d="m 135.75679,169.97928 v 68.2 h -17.2 v -68.2 z"
             style="font-style:normal;font-variant:normal;font-weight:bold;font-stretch:normal;font-size:100px;font-family:'Gill Sans MT';-inkscape-font-specification:'Gill Sans MT Bold';fill:#ffffff;fill-opacity:1"
             id="path18" />
          <path
             d="m 224.45674,169.97928 v 68.2 h -17.2 v -41.7 l -18.3,22 h -2.5 l -18.3,-22 v 41.7 h -17.2 v -68.2 h 15.1 l 21.6,25.9 21.9,-25.9 z"
             style="font-style:normal;font-variant:normal;font-weight:bold;font-stretch:normal;font-size:100px;font-family:'Gill Sans MT';-inkscape-font-specification:'Gill Sans MT Bold';fill:#ffffff;fill-opacity:1"
             id="path20" />
          <path
             d="m 239.65664,169.97928 h 27.9 q 9.7,0 14.9,2.8 4.5,2.4 7.4,7.1 3,4.7 3,10.3 0,5.3 -2.6,10 -2.6,4.6 -7.2,7.4 -2.4,1.5 -5.4,2.3 -3,0.7 -5,0.8 -2,0.1 -5.7,0.1 h -10.1 v 27.4 h -17.2 z m 23.2,12.6 h -6 v 15.7 h 5.6 q 2.3,0 3.5,0 1.3,-0.1 3.3,-0.5 2.1,-0.4 3.1,-1.2 1.1,-0.8 2,-2.4 0.9,-1.6 0.9,-3.9 0,-2.2 -0.9,-3.7 -0.9,-1.6 -2,-2.3 -1.1,-0.8 -3.1,-1.2 -2,-0.4 -3.2,-0.4 -1.1,-0.1 -3.2,-0.1 z"
             style="font-style:normal;font-variant:normal;font-weight:bold;font-stretch:normal;font-size:100px;font-family:'Gill Sans MT';-inkscape-font-specification:'Gill Sans MT Bold';fill:#ffffff;fill-opacity:1"
             id="path22" />
          <path
             d="m 356.75656,225.47928 v 12.7 h -52 v -68.2 h 17.2 v 55.5 z"
             style="font-style:normal;font-variant:normal;font-weight:bold;font-stretch:normal;font-size:100px;font-family:'Gill Sans MT';-inkscape-font-specification:'Gill Sans MT Bold';fill:#ffffff;fill-opacity:1"
             id="path24" />
          <path
             d="m 416.55652,225.67928 v 12.5 h -50.3 v -68.2 h 49.6 v 12.7 h -32.4 v 13.8 h 30.9 v 12.8 h -30.9 v 16.4 z"
             style="font-style:normal;font-variant:normal;font-weight:bold;font-stretch:normal;font-size:100px;font-family:'Gill Sans MT';-inkscape-font-specification:'Gill Sans MT Bold';fill:#ffffff;fill-opacity:1"
             id="path26" />
          <path
             d="m 485.15646,169.97928 h 27.9 q 9.7,0 14.9,2.8 4.5,2.4 7.4,7.1 3,4.7 3,10.3 0,5.3 -2.6,10 -2.6,4.6 -7.2,7.4 -2.4,1.5 -5.4,2.3 -3,0.7 -5,0.8 -2,0.1 -5.7,0.1 h -10.1 v 27.4 h -17.2 z m 23.2,12.6 h -6 v 15.7 h 5.6 q 2.3,0 3.5,0 1.3,-0.1 3.3,-0.5 2.1,-0.4 3.1,-1.2 1.1,-0.8 2,-2.4 0.9,-1.6 0.9,-3.9 0,-2.2 -0.9,-3.7 -0.9,-1.6 -2,-2.3 -1.1,-0.8 -3.1,-1.2 -2,-0.4 -3.2,-0.4 -1.1,-0.1 -3.2,-0.1 z"
             style="font-style:normal;font-variant:normal;font-weight:bold;font-stretch:normal;font-size:100px;font-family:'Gill Sans MT';-inkscape-font-specification:'Gill Sans MT Bold';fill:#ffffff;fill-opacity:1"
             id="path28" />
          <path
             d="m 618.35634,169.97928 v 68.2 h -17.1 v -27.6 h -33.8 v 27.6 h -17.2 v -68.2 h 17.2 v 27.4 h 33.8 v -27.4 z"
             style="font-style:normal;font-variant:normal;font-weight:bold;font-stretch:normal;font-size:100px;font-family:'Gill Sans MT';-inkscape-font-specification:'Gill Sans MT Bold';fill:#ffffff;fill-opacity:1"
             id="path30" />
          <path
             d="m 696.85621,169.97928 -26.9,36.3 v 31.9 h -17.1 v -31.9 l -26.9,-36.3 h 20.5 l 15,21.4 15,-21.4 z"
             style="font-style:normal;font-variant:normal;font-weight:bold;font-stretch:normal;font-size:100px;font-family:'Gill Sans MT';-inkscape-font-specification:'Gill Sans MT Bold';fill:#ffffff;fill-opacity:1"
             id="path32" />
        </g>
        <rect
           y="225.88692"
           x="424.57394"
           height="12.269764"
           width="53.440914"
           id="rect4202"
           style="opacity:1;fill:#e64823;fill-opacity:1;fill-rule:nonzero;stroke:#000000;stroke-width:0;stroke-linecap:butt;stroke-miterlimit:4;stroke-dasharray:none;stroke-dashoffset:0;stroke-opacity:1" />
      </g>
    </g>
    <g
       id="g4192"
       transform="matrix(0.63284891,0,0,0.63284891,118.97881,-133.51591)"
       style="fill:#e64823;fill-opacity:1">
      <path
         style="opacity:1;fill:#e64823;fill-opacity:1;fill-rule:nonzero;stroke:#000000;stroke-width:0;stroke-linecap:butt;stroke-miterlimit:4;stroke-dasharray:none;stroke-dashoffset:0;stroke-opacity:1"
         d="M 44.669922,12.962891 A 44.670789,44.670789 0 0 0 0,57.632812 44.670789,44.670789 0 0 0 44.669922,102.30469 44.670789,44.670789 0 0 0 89.341797,57.632812 44.670789,44.670789 0 0 0 44.669922,12.962891 Z m 0,25.080078 A 19.590026,19.590026 0 0 1 64.261719,57.632812 19.590026,19.590026 0 0 1 44.669922,77.222656 19.590026,19.590026 0 0 1 25.080078,57.632812 19.590026,19.590026 0 0 1 44.669922,38.042969 Z"
         transform="matrix(1.1758899,0,0,1.1758899,-254.55844,465.37364)"
         id="path4188"
         inkscape:connector-curvature="0" />
    </g>
  </g>
</svg>
